<svg width="27" height="23" viewBox="0 0 27 23" fill="none" xmlns="http://www.w3.org/2000/svg">
<path d="M20.9984 2.96573L20.9984 20.9657C20.9979 21.496 20.787 22.0044 20.412 22.3794C20.0371 22.7543 19.5287 22.9652 18.9984 22.9657L14.9984 22.9657C14.4681 22.9652 13.9597 22.7543 13.5848 22.3794C13.2098 22.0044 12.9989 21.496 12.9984 20.9657L12.9984 2.96573C12.9989 2.43546 13.2098 1.92706 13.5848 1.5521C13.9597 1.17714 14.4681 0.96626 14.9984 0.96573L18.9984 0.96573C19.5287 0.96626 20.0371 1.17714 20.412 1.5521C20.787 1.92706 20.9979 2.43546 20.9984 2.96573ZM14.9984 20.9657L18.9984 20.9657L18.9984 2.96573L14.9984 2.96573L14.9984 20.9657ZM14.9984 2.96573L14.9984 20.9657C14.9979 21.496 14.787 22.0044 14.412 22.3793C14.0371 22.7543 13.5287 22.9652 12.9984 22.9657L8.99841 22.9657C8.46814 22.9652 7.95974 22.7543 7.58478 22.3793C7.20983 22.0044 6.99894 21.496 6.99841 20.9657L6.99841 2.96571C6.99894 2.43544 7.20983 1.92704 7.58478 1.55208C7.95974 1.17712 8.46814 0.966242 8.99841 0.965711L12.9984 0.965711C13.5287 0.966241 14.0371 1.17712 14.412 1.55208C14.787 1.92704 14.9979 2.43546 14.9984 2.96573ZM8.99841 20.9657L12.9984 20.9657L12.9984 2.96573L8.99841 2.96571L8.99841 20.9657ZM8.99841 2.96571L8.99841 20.9657C8.99788 21.496 8.787 22.0044 8.41204 22.3793C8.03708 22.7543 7.52868 22.9652 6.99841 22.9657L2.99841 22.9657C2.46814 22.9652 1.95974 22.7543 1.58478 22.3793C1.20983 22.0044 0.998942 21.496 0.998413 20.9657L0.998412 2.96571C0.998942 2.43544 1.20983 1.92704 1.58478 1.55208C1.95974 1.17712 2.46814 0.966242 2.99841 0.965712L6.99841 0.965711C7.52868 0.966242 8.03708 1.17712 8.41204 1.55208C8.787 1.92704 8.99788 2.43544 8.99841 2.96571ZM2.99841 20.9657L6.99841 20.9657L6.99841 2.96571L2.99841 2.96571L2.99841 20.9657Z" fill="#CDCDCD"/>
<path d="M26.9984 2.96595L26.9984 20.9659C26.9979 21.4962 26.787 22.0046 26.412 22.3796C26.0371 22.7545 25.5287 22.9654 24.9984 22.9659L20.9984 22.9659C20.4681 22.9654 19.9597 22.7545 19.5848 22.3796C19.2098 22.0046 18.9989 21.496 18.9984 20.9657L18.9984 2.96573C18.9989 2.43546 19.2098 1.92728 19.5848 1.55232C19.9597 1.17737 20.4681 0.966483 20.9984 0.965953L24.9984 0.965953C25.5287 0.966483 26.0371 1.17737 26.412 1.55232C26.787 1.92728 26.9979 2.43568 26.9984 2.96595ZM20.9984 20.9657L24.9984 20.9659L24.9984 2.96595L20.9984 2.96573L20.9984 20.9657Z" fill="#CDCDCD"/>
</svg>
