<svg width="22" height="23" viewBox="0 0 22 23" fill="none" xmlns="http://www.w3.org/2000/svg">
<path d="M20 0.135864H2C0.895431 0.135864 0 1.03234 0 2.13691C0 2.16525 0 2.18514 0 2.19504V20.195C0 21.2669 0.869976 22.1359 1.94187 22.1359C1.97009 22.1359 1.98998 22.1359 1.99999 22.1359H20C20.01 22.1359 20.0299 22.1359 20.0581 22.1359C21.13 22.1359 22 21.2669 22 20.195V2.19501C22 2.18512 22 2.16523 22 2.13691C22 1.03234 21.1046 0.135864 20 0.135864ZM13 20.195H2V12.195H13V20.195ZM13 10.195H2V2.19504L13 2.19501V10.195ZM20 20.195H15V2.19504H20V20.195Z" fill="#CDCDCD"/>
</svg>
